<svg xmlns="http://www.w3.org/2000/svg" version="1.1" xmlns:xlink="http://www.w3.org/1999/xlink" xmlns:svgjs="http://svgjs.dev/svgjs" width="1000" height="1000" viewBox="0 0 1000 1000"><rect width="1000" height="1000" fill="#000000"></rect><g transform="matrix(0.7,0,0,0.7,149.57576696856984,319.7717959465105)"><svg viewBox="0 0 396 204" data-background-color="#102e44" preserveAspectRatio="xMidYMid meet" height="515" width="1000" xmlns="http://www.w3.org/2000/svg" xmlns:xlink="http://www.w3.org/1999/xlink"><g id="tight-bounds" transform="matrix(1,0,0,1,0.23999468635190624,-0.012333905931058098)"><svg viewBox="0 0 395.52 204.02455095518246" height="204.02455095518246" width="395.52"><g><svg viewBox="0 0 947.7044900193105 488.86272" height="204.02455095518246" width="395.52"><g transform="matrix(1,0,0,1,552.1844900193104,173.23597210788125)"><svg viewBox="0 0 395.52000000000004 142.3907757842375" height="142.3907757842375" width="395.52000000000004"><g id="textblocktransform"><svg viewBox="0 0 395.52000000000004 142.3907757842375" height="142.3907757842375" width="395.52000000000004" id="textblock"><g><svg viewBox="0 0 395.52000000000004 107.2904827586207" height="107.2904827586207" width="395.52000000000004"><g transform="matrix(1,0,0,1,0,0)"><svg width="395.52000000000004" viewBox="-0.9000000357627869 -35.79999923706055 152.239990234375 41.29999923706055" height="107.2904827586207" data-palette-color="#ffffff"><path d="M35.1-31.15L31.2-22.75Q27.15-25 23-25.85L23-25.85 23 0 11.2 0 11.2-25.85Q7.05-25 3-22.75L3-22.75-0.9-31.15Q2.85-33.4 7.5-34.6 12.15-35.8 17.1-35.8L17.1-35.8Q22.05-35.8 26.7-34.6 31.35-33.4 35.1-31.15L35.1-31.15ZM54.9 0.8Q49.25 0.8 44.75-1.55 40.25-3.9 37.7-8.08 35.15-12.25 35.15-17.5L35.15-17.5Q35.15-22.75 37.7-26.93 40.25-31.1 44.75-33.45 49.25-35.8 54.9-35.8L54.9-35.8Q60.55-35.8 65.05-33.45 69.55-31.1 72.1-26.93 74.65-22.75 74.65-17.5L74.65-17.5Q74.65-12.25 72.1-8.08 69.55-3.9 65.05-1.55 60.55 0.8 54.9 0.8L54.9 0.8ZM54.9-8.75Q57.1-8.75 58.87-9.83 60.65-10.9 61.7-12.88 62.75-14.85 62.75-17.5L62.75-17.5Q62.75-20.15 61.7-22.13 60.65-24.1 58.87-25.18 57.1-26.25 54.9-26.25L54.9-26.25Q52.7-26.25 50.92-25.18 49.15-24.1 48.1-22.13 47.05-20.15 47.05-17.5L47.05-17.5Q47.05-14.85 48.1-12.88 49.15-10.9 50.92-9.83 52.7-8.75 54.9-8.75L54.9-8.75ZM106.95-18.3Q110.05-17.15 111.75-14.95 113.45-12.75 113.45-9.65L113.45-9.65Q113.45-5.05 109.65-2.53 105.85 0 98.65 0L98.65 0 78.95 0 78.95-35 97.65-35Q104.65-35 108.22-32.5 111.8-30 111.8-25.85L111.8-25.85Q111.8-23.4 110.57-21.45 109.35-19.5 106.95-18.3L106.95-18.3ZM96.05-26.75L90.55-26.75 90.55-21.55 96.05-21.55Q99.9-21.55 99.9-24.15L99.9-24.15Q99.9-26.75 96.05-26.75L96.05-26.75ZM97.65-8.25Q101.55-8.25 101.55-11L101.55-11Q101.55-13.75 97.65-13.75L97.65-13.75 90.55-13.75 90.55-8.25 97.65-8.25ZM139.54-35L151.34-35 151.34-11.55Q151.34-6.15 149.14-2.3 146.94 1.55 142.89 3.53 138.84 5.5 133.34 5.5L133.34 5.5Q128.59 5.5 124.72 4.38 120.84 3.25 117.99 1.25L117.99 1.25 122.29-7.1Q124.74-5.55 127.47-4.73 130.19-3.9 132.79-3.9L132.79-3.9Q136.39-3.9 137.97-5.58 139.54-7.25 139.54-10.9L139.54-10.9 139.54-11.9Q136.19-8.1 130.59-8.1L130.59-8.1Q123.99-8.1 120.52-11.83 117.04-15.55 117.04-22.65L117.04-22.65 117.04-35 128.84-35 128.84-23.5Q128.84-20.55 130.12-19.1 131.39-17.65 134.04-17.65L134.04-17.65Q136.54-17.65 138.04-19.13 139.54-20.6 139.54-23.9L139.54-23.9 139.54-35Z" opacity="1" transform="matrix(1,0,0,1,0,0)" fill="#ffffff" class="undefined-text-0" data-fill-palette-color="primary" id="text-0"></path></svg></g></svg></g><g transform="matrix(1,0,0,1,0,132.61919076634484)"><svg viewBox="0 0 232.209792 9.771585017892646" height="9.771585017892646" width="232.209792"><g transform="matrix(1,0,0,1,0,0)"><svg width="232.209792" viewBox="3.5 -26.149999618530273 754.4400024414062 31.75" height="9.771585017892646" data-palette-color="#ffffff"><path d="M16.1-3.25L16.1-3.25Q19.5-3.25 21.65-3.8L21.65-3.8Q20.75-9.35 16.55-12.05L16.55-12.05Q16.1-7.6 16.1-3.25ZM3.5-15L3.5-15Q3.5-20.25 4.45-25L4.45-25 32.2-25Q29.95-18 23.6-14.85L23.6-14.85Q29.35-12.8 32.8-9.15L32.8-9.15Q32.35-4.5 30.65 0L30.65 0 5.5 0Q3.5-6.95 3.5-15ZM16.95-15.5L16.95-15.5Q19.4-16.15 21.5-17.75 23.6-19.35 24.5-21.7L24.5-21.7Q20.5-21.7 18-21.45L18-21.45Q17.4-18.55 16.95-15.5ZM55.5-14.95L55.5-14.95 60.2-14.65Q60.9-14.65 61.25-14.7L61.25-14.7 58.9-10.3 58.45-10.3Q57.5-10.3 55.75-10.83 54-11.35 53.25-11.35L53.25-11.35Q51.2-11.35 50-8.7L50-8.7Q49.8-6.25 49.7-3.8L49.7-3.8Q52.3-3.3 53.8-3.3L53.8-3.3 54.25-3.3Q56.4-3.3 57.67-4.25 58.95-5.2 59.5-7.65L59.5-7.65 65.5-7.4Q64.75-3.1 63.5 0L63.5 0 38.95 0Q37.95-6.75 37.95-13.4 37.95-20.05 38.65-25L38.65-25 65.45-25Q64.55-19.6 63.85-17.4L63.85-17.4Q60.9-17.25 58.45-17.2L58.45-17.2Q58.85-18.35 58.85-19.35L58.85-19.35Q58.85-21.75 55.25-21.75L55.25-21.75Q53.9-21.75 52.25-21.45L52.25-21.45Q51.15-16.7 50.55-13.1L50.55-13.1Q52.55-14.95 55.5-14.95ZM89.45-22L89.45-22Q87.45-22.3 85.17-22.3 82.9-22.3 80.75-22L80.75-22Q82.1-19.7 83.95-18.25 85.8-16.8 88.62-15.38 91.45-13.95 93.22-12.75 95-11.55 97.15-8.8 99.3-6.05 99.85-3.05L99.85-3.05Q97.45 0.05 93.5 2.43 89.55 4.8 85.4 5.6L85.4 5.6Q82.6 5.35 78.32 4.03 74.05 2.7 71.9 2.7 69.75 2.7 67.6 4.05L67.6 4.05Q68.5 1.5 70.55-2.35L70.55-2.35 70.95-2.35Q74.15-2.35 76.97-1.35 79.8-0.35 82.12 0.65 84.45 1.65 85.87 1.65 87.3 1.65 87.95 1.45L87.95 1.45Q87.95-1.85 85.9-4L85.9-4Q84.8-5.15 84.02-5.78 83.25-6.4 81.65-7.5L81.65-7.5 80.8-8.1Q77.4-10.45 75.2-12.88 73-15.3 72-18.85L72-18.85Q73.6-22.4 75.15-25L75.15-25Q79.9-26.15 85-26.15L85-26.15 87.2-26.15Q91.5-26.15 97.05-24.95L97.05-24.95Q96.25-21.65 95.1-19L95.1-19Q90.9-18.7 88.6-18.7L88.6-18.7Q89.05-19.85 89.45-22ZM123.64-21.75L123.64-21.75Q122.34-13.85 122.34-8.85 122.34-3.85 122.74 0L122.74 0 111.84 0Q110.14-7.95 110.14-17.1L110.14-17.1Q110.14-18.65 110.24-21.75L110.24-21.75Q105.99-20.5 105.04-16L105.04-16 100.09-16.3 101.89-25 135.14-25Q134.14-19.5 132.84-16L132.84-16 127.79-16.3Q127.99-17.1 127.99-17.9L127.99-17.9Q127.99-19.85 126.79-20.8 125.59-21.75 123.64-21.75ZM176.39-21.75L176.39-21.75Q175.09-13.85 175.09-8.85 175.09-3.85 175.49 0L175.49 0 164.59 0Q162.89-7.95 162.89-17.1L162.89-17.1Q162.89-18.65 162.99-21.75L162.99-21.75Q158.74-20.5 157.79-16L157.79-16 152.84-16.3 154.64-25 187.89-25Q186.89-19.5 185.59-16L185.59-16 180.54-16.3Q180.74-17.1 180.74-17.9L180.74-17.9Q180.74-19.85 179.54-20.8 178.34-21.75 176.39-21.75ZM208.79-14.95L208.79-14.95 213.49-14.65Q214.19-14.65 214.54-14.7L214.54-14.7 212.19-10.3 211.74-10.3Q210.79-10.3 209.04-10.83 207.29-11.35 206.54-11.35L206.54-11.35Q204.49-11.35 203.29-8.7L203.29-8.7Q203.09-6.25 202.99-3.8L202.99-3.8Q205.59-3.3 207.09-3.3L207.09-3.3 207.54-3.3Q209.69-3.3 210.96-4.25 212.24-5.2 212.79-7.65L212.79-7.65 218.79-7.4Q218.04-3.1 216.79 0L216.79 0 192.24 0Q191.24-6.75 191.24-13.4 191.24-20.05 191.94-25L191.94-25 218.74-25Q217.84-19.6 217.14-17.4L217.14-17.4Q214.19-17.25 211.74-17.2L211.74-17.2Q212.14-18.35 212.14-19.35L212.14-19.35Q212.14-21.75 208.54-21.75L208.54-21.75Q207.19-21.75 205.54-21.45L205.54-21.45Q204.44-16.7 203.84-13.1L203.84-13.1Q205.84-14.95 208.79-14.95ZM244.03-21.95L244.03-21.95Q242.28-22.25 240.66-22.25 239.03-22.25 236.73-21.7L236.73-21.7Q235.98-18.55 235.98-15.55L235.98-15.55Q235.98-7.8 242.88-3.65L242.88-3.65Q247.48-6.7 251.18-11.25L251.18-11.25Q251.33-9.25 251.43-5.15L251.43-5.15Q247.73-2.25 243.88-0.6 240.03 1.05 234.28 1.05L234.28 1.05 233.13 1.05Q228.63-0.9 226.06-4.7 223.48-8.5 223.48-12.7L223.48-12.7Q223.48-18.3 228.08-22.23 232.68-26.15 241.43-26.15L241.43-26.15Q246.33-26.15 251.68-24.9L251.68-24.9Q250.88-21.75 249.68-18.95L249.68-18.95Q246.53-18.65 243.18-18.65L243.18-18.65Q243.68-20.05 244.03-21.95ZM288.13-20.85L288.13-20.85Q288.13-11.05 286.23 0L286.23 0 274.28 0Q275.08-5.9 275.33-12.7L275.33-12.7Q272.73-14.3 269.53-14.65L269.53-14.65Q269.23-7.3 267.93 0L267.93 0 256.58 0Q257.23-4.9 257.23-11.73 257.23-18.55 256.33-25L256.33-25 269.53-25Q269.63-22.95 269.63-18.9L269.63-18.9Q272.53-18 275.38-16.45L275.38-16.45Q275.38-21.1 275.03-25L275.03-25 288.03-25Q288.13-22.2 288.13-20.85ZM311.23-25L324.73-25 324.73-23.65Q324.73-10.45 323.08 0L323.08 0 311.08 0Q312.03-4.6 312.03-10.63 312.03-16.65 311.23-25L311.23-25ZM353.82-25L359.77-25Q360.07-19.75 360.07-13.93 360.07-8.1 359.57 0L359.57 0 354.77 0Q345.07-5.2 336.97-14.15L336.97-14.15Q337.37-10.8 337.37-7.28 337.37-3.75 337.12 0L337.12 0 331.27 0Q332.27-6.15 332.27-11.38 332.27-16.6 331.77-19.65L331.77-19.65Q329.77-22.65 328.62-25L328.62-25 342.82-25Q344.92-21.4 348.55-17.57 352.17-13.75 355.47-11.6L355.47-11.6Q355.47-18.9 353.82-25L353.82-25ZM404.32-21.75L404.32-21.75Q403.02-13.85 403.02-8.85 403.02-3.85 403.42 0L403.42 0 392.52 0Q390.82-7.95 390.82-17.1L390.82-17.1Q390.82-18.65 390.92-21.75L390.92-21.75Q386.67-20.5 385.72-16L385.72-16 380.77-16.3 382.57-25 415.82-25Q414.82-19.5 413.52-16L413.52-16 408.47-16.3Q408.67-17.1 408.67-17.9L408.67-17.9Q408.67-19.85 407.47-20.8 406.27-21.75 404.32-21.75ZM450.92-20.85L450.92-20.85Q450.92-11.05 449.02 0L449.02 0 437.07 0Q437.87-5.9 438.12-12.7L438.12-12.7Q435.52-14.3 432.32-14.65L432.32-14.65Q432.02-7.3 430.72 0L430.72 0 419.37 0Q420.02-4.9 420.02-11.73 420.02-18.55 419.12-25L419.12-25 432.32-25Q432.42-22.95 432.42-18.9L432.42-18.9Q435.32-18 438.17-16.45L438.17-16.45Q438.17-21.1 437.82-25L437.82-25 450.82-25Q450.92-22.2 450.92-20.85ZM473.71-14.95L473.71-14.95 478.41-14.65Q479.11-14.65 479.46-14.7L479.46-14.7 477.11-10.3 476.66-10.3Q475.71-10.3 473.96-10.83 472.21-11.35 471.46-11.35L471.46-11.35Q469.41-11.35 468.21-8.7L468.21-8.7Q468.01-6.25 467.91-3.8L467.91-3.8Q470.51-3.3 472.01-3.3L472.01-3.3 472.46-3.3Q474.61-3.3 475.89-4.25 477.16-5.2 477.71-7.65L477.71-7.65 483.71-7.4Q482.96-3.1 481.71 0L481.71 0 457.16 0Q456.16-6.75 456.16-13.4 456.16-20.05 456.86-25L456.86-25 483.66-25Q482.76-19.6 482.06-17.4L482.06-17.4Q479.11-17.25 476.66-17.2L476.66-17.2Q477.06-18.35 477.06-19.35L477.06-19.35Q477.06-21.75 473.46-21.75L473.46-21.75Q472.11-21.75 470.46-21.45L470.46-21.45Q469.36-16.7 468.76-13.1L468.76-13.1Q470.76-14.95 473.71-14.95ZM520.11-3.25L520.11-3.25Q523.51-3.25 525.66-3.8L525.66-3.8Q524.76-9.35 520.56-12.05L520.56-12.05Q520.11-7.6 520.11-3.25ZM507.51-15L507.51-15Q507.51-20.25 508.46-25L508.46-25 536.21-25Q533.96-18 527.61-14.85L527.61-14.85Q533.36-12.8 536.81-9.15L536.81-9.15Q536.36-4.5 534.66 0L534.66 0 509.51 0Q507.51-6.95 507.51-15ZM520.96-15.5L520.96-15.5Q523.41-16.15 525.51-17.75 527.61-19.35 528.51-21.7L528.51-21.7Q524.51-21.7 522.01-21.45L522.01-21.45Q521.41-18.55 520.96-15.5ZM565.26-25L571.66-25Q571.86-21.75 571.86-15.53 571.86-9.3 571.06-2.25L571.06-2.25Q565.86 1.1 558.61 1.1L558.61 1.1Q548.96 1.1 543.01-2.25L543.01-2.25Q542.36-7.65 542.36-12.73 542.36-17.8 543.11-25L543.11-25 556.56-25Q554.56-14.15 554.46-4.15L554.46-4.15Q556.56-2.25 560.51-2.25 564.46-2.25 566.56-3.65L566.56-3.65Q566.66-5.3 566.66-8.4L566.66-8.4Q566.66-16.3 565.26-25L565.26-25ZM594.95-22L594.95-22Q592.95-22.3 590.68-22.3 588.4-22.3 586.25-22L586.25-22Q587.6-19.7 589.45-18.25 591.3-16.8 594.13-15.38 596.95-13.95 598.73-12.75 600.5-11.55 602.65-8.8 604.8-6.05 605.35-3.05L605.35-3.05Q602.95 0.05 599 2.43 595.05 4.8 590.9 5.6L590.9 5.6Q588.1 5.35 583.83 4.03 579.55 2.7 577.4 2.7 575.25 2.7 573.1 4.05L573.1 4.05Q574 1.5 576.05-2.35L576.05-2.35 576.45-2.35Q579.65-2.35 582.48-1.35 585.3-0.35 587.63 0.65 589.95 1.65 591.38 1.65 592.8 1.65 593.45 1.45L593.45 1.45Q593.45-1.85 591.4-4L591.4-4Q590.3-5.15 589.53-5.78 588.75-6.4 587.15-7.5L587.15-7.5 586.3-8.1Q582.9-10.45 580.7-12.88 578.5-15.3 577.5-18.85L577.5-18.85Q579.1-22.4 580.65-25L580.65-25Q585.4-26.15 590.5-26.15L590.5-26.15 592.7-26.15Q597-26.15 602.55-24.95L602.55-24.95Q601.75-21.65 600.6-19L600.6-19Q596.4-18.7 594.1-18.7L594.1-18.7Q594.55-19.85 594.95-22ZM609.1-25L622.6-25 622.6-23.65Q622.6-10.45 620.95 0L620.95 0 608.95 0Q609.9-4.6 609.9-10.63 609.9-16.65 609.1-25L609.1-25ZM651.7-25L657.65-25Q657.95-19.75 657.95-13.93 657.95-8.1 657.45 0L657.45 0 652.65 0Q642.95-5.2 634.85-14.15L634.85-14.15Q635.25-10.8 635.25-7.28 635.25-3.75 635 0L635 0 629.15 0Q630.15-6.15 630.15-11.38 630.15-16.6 629.65-19.65L629.65-19.65Q627.65-22.65 626.5-25L626.5-25 640.7-25Q642.8-21.4 646.42-17.57 650.05-13.75 653.35-11.6L653.35-11.6Q653.35-18.9 651.7-25L651.7-25ZM681.84-14.95L681.84-14.95 686.54-14.65Q687.24-14.65 687.59-14.7L687.59-14.7 685.24-10.3 684.79-10.3Q683.84-10.3 682.09-10.83 680.34-11.35 679.59-11.35L679.59-11.35Q677.54-11.35 676.34-8.7L676.34-8.7Q676.14-6.25 676.04-3.8L676.04-3.8Q678.64-3.3 680.14-3.3L680.14-3.3 680.59-3.3Q682.74-3.3 684.02-4.25 685.29-5.2 685.84-7.65L685.84-7.65 691.84-7.4Q691.09-3.1 689.84 0L689.84 0 665.29 0Q664.29-6.75 664.29-13.4 664.29-20.05 664.99-25L664.99-25 691.79-25Q690.89-19.6 690.19-17.4L690.19-17.4Q687.24-17.25 684.79-17.2L684.79-17.2Q685.19-18.35 685.19-19.35L685.19-19.35Q685.19-21.75 681.59-21.75L681.59-21.75Q680.24-21.75 678.59-21.45L678.59-21.45Q677.49-16.7 676.89-13.1L676.89-13.1Q678.89-14.95 681.84-14.95ZM715.79-22L715.79-22Q713.79-22.3 711.52-22.3 709.24-22.3 707.09-22L707.09-22Q708.44-19.7 710.29-18.25 712.14-16.8 714.97-15.38 717.79-13.95 719.57-12.75 721.34-11.55 723.49-8.8 725.64-6.05 726.19-3.05L726.19-3.05Q723.79 0.05 719.84 2.43 715.89 4.8 711.74 5.6L711.74 5.6Q708.94 5.35 704.67 4.03 700.39 2.7 698.24 2.7 696.09 2.7 693.94 4.05L693.94 4.05Q694.84 1.5 696.89-2.35L696.89-2.35 697.29-2.35Q700.49-2.35 703.32-1.35 706.14-0.35 708.47 0.65 710.79 1.65 712.22 1.65 713.64 1.65 714.29 1.45L714.29 1.45Q714.29-1.85 712.24-4L712.24-4Q711.14-5.15 710.37-5.78 709.59-6.4 707.99-7.5L707.99-7.5 707.14-8.1Q703.74-10.45 701.54-12.88 699.34-15.3 698.34-18.85L698.34-18.85Q699.94-22.4 701.49-25L701.49-25Q706.24-26.15 711.34-26.15L711.34-26.15 713.54-26.15Q717.84-26.15 723.39-24.95L723.39-24.95Q722.59-21.65 721.44-19L721.44-19Q717.24-18.7 714.94-18.7L714.94-18.7Q715.39-19.85 715.79-22ZM747.54-22L747.54-22Q745.54-22.3 743.26-22.3 740.99-22.3 738.84-22L738.84-22Q740.19-19.7 742.04-18.25 743.89-16.8 746.71-15.38 749.54-13.95 751.31-12.75 753.09-11.55 755.24-8.8 757.39-6.05 757.94-3.05L757.94-3.05Q755.54 0.05 751.59 2.43 747.64 4.8 743.49 5.6L743.49 5.6Q740.69 5.35 736.41 4.03 732.14 2.7 729.99 2.7 727.84 2.7 725.69 4.05L725.69 4.05Q726.59 1.5 728.64-2.35L728.64-2.35 729.04-2.35Q732.24-2.35 735.06-1.35 737.89-0.35 740.21 0.65 742.54 1.65 743.96 1.65 745.39 1.65 746.04 1.45L746.04 1.45Q746.04-1.85 743.99-4L743.99-4Q742.89-5.15 742.11-5.78 741.34-6.4 739.74-7.5L739.74-7.5 738.89-8.1Q735.49-10.45 733.29-12.88 731.09-15.3 730.09-18.85L730.09-18.85Q731.69-22.4 733.24-25L733.24-25Q737.99-26.15 743.09-26.15L743.09-26.15 745.29-26.15Q749.59-26.15 755.14-24.95L755.14-24.95Q754.34-21.65 753.19-19L753.19-19Q748.99-18.7 746.69-18.7L746.69-18.7Q747.14-19.85 747.54-22Z" opacity="1" transform="matrix(1,0,0,1,0,0)" fill="#ffffff" class="undefined-text-1" data-fill-palette-color="secondary" id="text-1"></path></svg></g></svg></g></svg></g></svg></g><g><svg viewBox="0 0 488.86272 488.86272" height="488.86272" width="488.86272"><g><svg viewBox="0 0 488.86272 488.86272" height="488.86272" width="488.86272"><g transform="matrix(1,0,0,1,129.20531187289987,129.20531187289987)"><svg viewBox="0 0 230.4520962542003 230.4520962542003" height="230.4520962542003" width="230.4520962542003"><g><svg xmlns="http://www.w3.org/2000/svg" xmlns:xlink="http://www.w3.org/1999/xlink" version="1.1" x="0" y="0" viewBox="0 0 16 16" style="enable-background:new 0 0 16 16;" xml:space="preserve" height="230.4520962542003" width="230.4520962542003" class="icon-s-0" data-fill-palette-color="accent" id="s-0"><g fill="#b2fcfb" data-fill-palette-color="accent"><path d="M12 1H4V0H0v4h1v8H0v4h4v-1h8v1h4v-4h-1V4h1V0h-4V1zM13 12h-1v1H4v-1H3V4h1V3h8v1h1V12z" fill="#ffffff" data-fill-palette-color="accent"></path></g></svg></g></svg></g><path d="M114.411 362.996l-21.586 0.301c0.419-7.19-0.174-13.977-1.777-20.358v0l-54.296 26.136-11.931-24.785 54.296-26.137c-3.991-5.24-8.925-9.936-14.804-14.087v0l13.699-16.685c5.677 3.732 10.925 8.449 15.745 14.152 4.814 5.705 8.888 12.021 12.222 18.948v0c3.337 6.933 5.734 14.06 7.192 21.381 1.448 7.318 1.861 14.363 1.24 21.134zM149.817 472.693c-8.019-3.579-14.477-8.46-19.374-14.644-4.897-6.184-7.833-13.045-8.808-20.582-0.972-7.544 0.203-15.039 3.526-22.484v0c3.325-7.452 8.12-13.335 14.384-17.65 6.261-4.309 13.329-6.705 21.202-7.19 7.873-0.485 15.82 1.062 23.838 4.64v0c8.019 3.579 14.477 8.46 19.375 14.644 4.904 6.187 7.843 13.049 8.817 20.587 0.972 7.544-0.205 15.042-3.53 22.493v0c-3.323 7.446-8.116 13.326-14.38 17.641-6.261 4.309-13.332 6.704-21.212 7.186-7.873 0.485-15.82-1.062-23.838-4.641zM158.89 452.363c3.125 1.395 6.288 1.893 9.487 1.496 3.197-0.406 6.165-1.676 8.906-3.809 2.743-2.139 4.954-5.088 6.632-8.848v0c1.681-3.766 2.4-7.381 2.156-10.844-0.24-3.47-1.276-6.53-3.109-9.182-1.841-2.647-4.325-4.668-7.449-6.062v0c-3.119-1.392-6.278-1.889-9.479-1.492-3.203 0.404-6.173 1.676-8.91 3.818-2.74 2.133-4.951 5.082-6.631 8.847v0c-1.678 3.76-2.397 7.375-2.157 10.845 0.237 3.461 1.274 6.518 3.113 9.172 1.841 2.647 4.322 4.667 7.441 6.059zM334.623 427.182c5.139 0.112 9.516 1.353 13.13 3.722 3.618 2.361 6.216 5.818 7.793 10.372v0c2.34 6.754 1.363 12.953-2.931 18.598-4.296 5.639-11.732 10.29-22.305 13.954v0l-43.392 15.035-26.713-77.094 41.192-14.273c10.28-3.562 18.681-4.416 25.203-2.561 6.519 1.848 10.835 5.821 12.948 11.918v0c1.246 3.597 1.466 7.139 0.66 10.626-0.806 3.487-2.668 6.721-5.585 9.703zM304.175 416.892l-12.121 4.199 3.968 11.451 12.12-4.2c5.65-1.958 7.814-4.847 6.491-8.666v0c-1.321-3.814-4.807-4.742-10.458-2.784zM321.812 456.414c5.727-1.984 7.891-4.995 6.492-9.032v0c-1.399-4.037-4.962-5.063-10.688-3.078v0l-15.641 5.419 4.196 12.111zM384.148 314.125l13.178-24.145 47.989 26.189c7.364 4.019 12.853 8.96 16.466 14.822 3.616 5.872 5.265 12.304 4.947 19.297-0.327 6.996-2.537 14.244-6.63 21.744v0c-3.537 6.481-7.515 11.946-11.934 16.393-4.419 4.447-9.053 7.874-13.902 10.279v0l-12.288-18.124c3.942-2.193 7.489-4.84 10.642-7.94 3.153-3.1 5.698-6.425 7.634-9.974v0c2.68-4.911 3.464-9.067 2.351-12.466-1.111-3.39-4.157-6.444-9.139-9.163v0l-2.044-1.115c2.691 7.397 1.951 14.917-2.22 22.559v0c-4.911 8.999-11.202 14.482-18.872 16.448-7.664 1.969-16.339 0.31-26.026-4.977v0l-25.274-13.793 13.177-24.145 23.532 12.842c4.023 2.195 7.497 2.965 10.424 2.309 2.929-0.662 5.38-2.8 7.352-6.414v0c1.859-3.407 2.341-6.685 1.446-9.833-0.893-3.14-3.591-5.939-8.094-8.396v0z" fill="#ffffff" data-fill-palette-color="accent"></path><path d="M40.973 107.384L54.672 124.069C48.791 128.226 43.856 132.922 39.868 138.156V138.156L94.164 164.293 82.233 189.078 27.937 162.942C26.331 169.329 25.738 176.115 26.16 183.3V183.3L4.574 182.999C3.951 176.234 4.367 169.191 5.824 161.87 7.272 154.552 9.664 147.426 13.002 140.493V140.493C16.339 133.56 20.417 127.243 25.237 121.54 30.048 115.841 35.293 111.122 40.973 107.384ZM177.285 94.642C169.266 98.221 161.32 99.768 153.446 99.283 145.573 98.799 138.505 96.402 132.244 92.094 125.983 87.785 121.189 81.905 117.864 74.453V74.453C114.538 67.002 113.362 59.507 114.337 51.969 115.309 44.425 118.243 37.561 123.141 31.377 128.038 25.193 134.496 20.312 142.514 16.733V16.733C150.533 13.154 158.479 11.607 166.353 12.092 174.226 12.577 181.295 14.976 187.559 19.291 193.821 23.6 198.614 29.48 201.94 36.931V36.931C205.265 44.383 206.441 51.878 205.466 59.415 204.492 66.953 201.556 73.814 196.658 79.998 191.761 86.182 185.303 91.064 177.285 94.642ZM168.211 74.312C171.336 72.918 173.816 70.898 175.652 68.253 177.49 65.6 178.531 62.541 178.774 59.077 179.014 55.607 178.295 51.992 176.617 48.232V48.232C174.939 44.473 172.729 41.524 169.985 39.385 167.242 37.246 164.271 35.978 161.07 35.581 157.873 35.174 154.713 35.669 151.588 37.063V37.063C148.469 38.455 145.99 40.478 144.152 43.131 142.31 45.779 141.272 48.836 141.039 52.303 140.799 55.773 141.518 59.388 143.195 63.148V63.148C144.873 66.908 147.084 69.857 149.827 71.996 152.561 74.131 155.53 75.4 158.733 75.804 161.933 76.201 165.093 75.704 168.211 74.312ZM341.651 58.161C345.621 61.423 348.293 65.102 349.666 69.199 351.048 73.293 350.95 77.616 349.372 82.169V82.169C347.032 88.923 342.428 93.189 335.562 94.967 328.698 96.739 319.979 95.793 309.405 92.129V92.129L266.013 77.094 292.726 0 333.918 14.273C344.192 17.833 351.32 22.36 355.302 27.854 359.278 33.346 360.211 39.138 358.101 45.228V45.228C356.854 48.825 354.836 51.744 352.045 53.984 349.254 56.224 345.79 57.617 341.651 58.161ZM324.09 31.226L311.98 27.029 308.012 38.48 320.123 42.676C325.779 44.636 329.268 43.71 330.59 39.896V39.896C331.914 36.076 329.747 33.186 324.09 31.226ZM313.503 73.191C319.23 75.175 322.793 74.149 324.192 70.112V70.112C325.59 66.075 323.426 63.065 317.699 61.08V61.08L302.059 55.661 297.862 67.771ZM471.392 143.964L484.569 168.11 436.579 194.299C429.215 198.317 422.089 200.257 415.2 200.118 408.309 199.988 402.007 197.895 396.295 193.838 390.592 189.784 385.694 184.007 381.601 176.506V176.506C378.063 170.025 375.62 163.723 374.271 157.601 372.918 151.473 372.544 145.722 373.148 140.348V140.348L395.039 139.82C394.747 144.316 395.054 148.731 395.959 153.066 396.86 157.395 398.279 161.334 400.216 164.883V164.883C402.896 169.794 405.965 172.698 409.422 173.595 412.877 174.501 417.096 173.594 422.078 170.875V170.875L424.122 169.76C416.445 168.021 410.522 163.33 406.351 155.687V155.687C401.44 146.688 400.232 138.431 402.729 130.917 405.22 123.407 411.309 117.008 420.996 111.722V111.722L446.27 97.929 459.442 122.066 435.91 134.909C431.887 137.104 429.361 139.612 428.333 142.434 427.305 145.256 427.777 148.474 429.749 152.088V152.088C431.608 155.495 434.101 157.675 437.228 158.629 440.358 159.573 444.174 158.817 448.677 156.36V156.36Z" fill="#ffffff" data-fill-palette-color="accent"></path><path d="M4.26 252.858c0-17.606 14.273-31.879 31.879-31.88 17.606 0 31.879 14.273 31.88 31.88 0 17.606-14.273 31.879-31.88 31.879-17.606 0-31.879-14.273-31.879-31.879zM415.829 252.858c0-17.606 14.273-31.879 31.879-31.88 17.606 0 31.879 14.273 31.879 31.88 0 17.606-14.273 31.879-31.879 31.879-17.606 0-31.879-14.273-31.879-31.879z" fill="#ffffff" data-fill-palette-color="accent"></path></svg></g></svg></g></svg></g><defs></defs></svg><rect width="395.52" height="204.02455095518246" fill="none" stroke="none" visibility="hidden"></rect></g></svg></g></svg>